<svg xmlns="http://www.w3.org/2000/svg" width="980" height="700" viewBox="0 0 980 700">
<rect width="980" height="700" fill="#0d1117"/>
<style>
.t{font-family:Consolas,"Courier New",monospace;fill:#f3f5f7}
.h{font-family:Consolas,"Courier New",monospace;fill:#f3f5f7;font-weight:700}
.m{font-family:Consolas,"Courier New",monospace;fill:#b7c0ca}
.d{font-family:Consolas,"Courier New",monospace;fill:#74808d}
.l{stroke:#596572;stroke-width:1}
.b{fill:#111820;stroke:#7d8894;stroke-width:1}
</style>

<text x="0" y="46" class="t" font-size="34">02</text>
<text x="56" y="45" class="h" font-size="13" letter-spacing="5">SYSTEM MAP</text>
<line x1="225" y1="40" x2="835" y2="40" class="l"/>
<text x="848" y="45" class="d" font-size="10">~/02-ecosystem</text>

<text x="0" y="80" class="h" font-size="10" letter-spacing="3">SYSTEM MAP — WHAT HARKIRAT IS ACTUALLY BUILDING</text>

<line x1="490" y1="140" x2="490" y2="550" stroke="#66717d" stroke-width="1"/>
<rect x="375" y="310" width="230" height="70" class="b"/>
<text x="490.0" y="337" class="h" font-size="11" text-anchor="middle">HARKIRAT.SYS</text>
<text x="490.0" y="354" class="d" font-size="9" text-anchor="middle">learning pipeline · ML / DL</text>

<text x="0" y="112" class="h" font-size="10" letter-spacing="3">DEEP LEARNING</text>
<text x="690" y="112" class="h" font-size="10" letter-spacing="3">CLASSICAL ML</text>

<rect x="0" y="128" width="250" height="64" class="b"/>
<text x="125.0" y="154" class="h" font-size="11" text-anchor="middle">Decode-Neural-Networks</text>
<text x="125.0" y="173" class="d" font-size="9" text-anchor="middle">NumPy · from scratch</text>
<line x1="250" y1="160" x2="375" y2="345" stroke="#4d5864" stroke-width="1"/>

<rect x="0" y="202" width="250" height="64" class="b"/>
<text x="125.0" y="228" class="h" font-size="11" text-anchor="middle">Weights_Initialization</text>
<text x="125.0" y="247" class="d" font-size="9" text-anchor="middle">zero init · EWMA</text>
<line x1="250" y1="234" x2="375" y2="345" stroke="#4d5864" stroke-width="1"/>

<rect x="0" y="276" width="250" height="64" class="b"/>
<text x="125.0" y="302" class="h" font-size="11" text-anchor="middle">improving-neural-networks</text>
<text x="125.0" y="321" class="d" font-size="9" text-anchor="middle">scaling · dropout · regularization</text>
<line x1="250" y1="308" x2="375" y2="345" stroke="#4d5864" stroke-width="1"/>

<rect x="0" y="350" width="250" height="64" class="b"/>
<text x="125.0" y="376" class="h" font-size="11" text-anchor="middle">Stochastic-Batch-Gradient</text>
<text x="125.0" y="395" class="d" font-size="9" text-anchor="middle">stochastic vs batch</text>
<line x1="250" y1="382" x2="375" y2="345" stroke="#4d5864" stroke-width="1"/>

<rect x="0" y="424" width="250" height="64" class="b"/>
<text x="125.0" y="450" class="h" font-size="11" text-anchor="middle">Graduate_admission-ANN</text>
<text x="125.0" y="469" class="d" font-size="9" text-anchor="middle">ANN experiment</text>
<line x1="250" y1="456" x2="375" y2="345" stroke="#4d5864" stroke-width="1"/>

<rect x="0" y="498" width="250" height="64" class="b"/>
<text x="125.0" y="524" class="h" font-size="11" text-anchor="middle">Digits_analyzer-ANN</text>
<text x="125.0" y="543" class="d" font-size="9" text-anchor="middle">digit classification</text>
<line x1="250" y1="530" x2="375" y2="345" stroke="#4d5864" stroke-width="1"/>

<rect x="730" y="128" width="250" height="64" class="b"/>
<text x="855.0" y="154" class="h" font-size="11" text-anchor="middle">PCA-UseCase</text>
<text x="855.0" y="173" class="d" font-size="9" text-anchor="middle">dimensionality reduction</text>
<line x1="730" y1="160" x2="605" y2="345" stroke="#4d5864" stroke-width="1"/>

<rect x="730" y="202" width="250" height="64" class="b"/>
<text x="855.0" y="228" class="h" font-size="11" text-anchor="middle">SVM-kernels</text>
<text x="855.0" y="247" class="d" font-size="9" text-anchor="middle">SVM kernels</text>
<line x1="730" y1="234" x2="605" y2="345" stroke="#4d5864" stroke-width="1"/>

<rect x="730" y="276" width="250" height="64" class="b"/>
<text x="855.0" y="302" class="h" font-size="11" text-anchor="middle">Silhoutte-clustering</text>
<text x="855.0" y="321" class="d" font-size="9" text-anchor="middle">clustering evaluation</text>
<line x1="730" y1="308" x2="605" y2="345" stroke="#4d5864" stroke-width="1"/>

<rect x="730" y="350" width="250" height="64" class="b"/>
<text x="855.0" y="376" class="h" font-size="11" text-anchor="middle">911-calls-predictor</text>
<text x="855.0" y="395" class="d" font-size="9" text-anchor="middle">Jupyter analysis</text>
<line x1="730" y1="382" x2="605" y2="345" stroke="#4d5864" stroke-width="1"/>

<rect x="730" y="424" width="250" height="64" class="b"/>
<text x="855.0" y="450" class="h" font-size="11" text-anchor="middle">Salary-Prediction-Dataset</text>
<text x="855.0" y="469" class="d" font-size="9" text-anchor="middle">regression</text>
<line x1="730" y1="456" x2="605" y2="345" stroke="#4d5864" stroke-width="1"/>

<rect x="730" y="498" width="250" height="64" class="b"/>
<text x="855.0" y="524" class="h" font-size="11" text-anchor="middle">Insurance_Premium_Pred-Model</text>
<text x="855.0" y="543" class="d" font-size="9" text-anchor="middle">prediction</text>
<line x1="730" y1="530" x2="605" y2="345" stroke="#4d5864" stroke-width="1"/>

<text x="0" y="600" class="h" font-size="10" letter-spacing="3">APIs / APPS</text>

<rect x="0" y="615" width="180" height="64" class="b"/>
<text x="90.0" y="641" class="h" font-size="11" text-anchor="middle">FastAPI</text>
<text x="90.0" y="660" class="d" font-size="9" text-anchor="middle">API practice</text>

<rect x="196" y="615" width="180" height="64" class="b"/>
<text x="286.0" y="641" class="h" font-size="11" text-anchor="middle">flask-demo</text>
<text x="286.0" y="660" class="d" font-size="9" text-anchor="middle">Flask practice</text>

<rect x="392" y="615" width="180" height="64" class="b"/>
<text x="482.0" y="641" class="h" font-size="11" text-anchor="middle">PawsEzy</text>
<text x="482.0" y="660" class="d" font-size="9" text-anchor="middle">Python app</text>

<rect x="588" y="615" width="180" height="64" class="b"/>
<text x="678.0" y="641" class="h" font-size="11" text-anchor="middle">vet-vaccination-reminder</text>
<text x="678.0" y="660" class="d" font-size="9" text-anchor="middle">Streamlit dashboard</text>

<rect x="784" y="615" width="180" height="64" class="b"/>
<text x="874.0" y="641" class="h" font-size="11" text-anchor="middle">SOS-Mesh-Network</text>
<text x="874.0" y="660" class="d" font-size="9" text-anchor="middle">Dart project</text>
</svg>
