<svg xmlns="http://www.w3.org/2000/svg" width="980" height="585" viewBox="0 0 980 585">
<rect width="100%" height="100%" fill="#0d1117"/>
<style>
.t{font-family:Consolas,'Courier New',monospace;fill:#f0f3f6}
.m{font-family:Consolas,'Courier New',monospace;fill:#a7b0bc}
.d{font-family:Consolas,'Courier New',monospace;fill:#657080}
.h{font-family:Consolas,'Courier New',monospace;fill:#f0f3f6;font-weight:700}
.l{stroke:#7f8b99;stroke-width:1;fill:none}
</style>
<text x="0" y="45" class="t" font-size="34">04</text>
<text x="52" y="44" class="h" font-size="11" letter-spacing="5">TELEMETRY</text>
<line x1="210" y1="40" x2="830" y2="40" class="l"/>
<text x="842" y="44" class="d" font-size="8">~/04-telemetry</text><text x="0" y="78" class="h" font-size="9" letter-spacing="3">TELEMETRY — WHAT THE ACCOUNT SHOWS NOW</text><text x="0" y="110" class="h" font-size="9" letter-spacing="2">PRIMARY LANGUAGES · PUBLIC REPO SNAPSHOT</text><text x="0" y="140" class="t" font-size="9">Jupyter Notebook</text><rect x="105" y="130" width="150" height="6" fill="#f2f4f7"/><text x="270" y="140" class="d" font-size="8">14</text><text x="0" y="165" class="t" font-size="9">Python</text><rect x="105" y="155" width="150" height="6" fill="#5fa7ff"/><text x="270" y="165" class="d" font-size="8">14</text><text x="0" y="190" class="t" font-size="9">Dart</text><rect x="105" y="180" width="11" height="6" fill="#16c1b7"/><text x="270" y="190" class="d" font-size="8">1</text><text x="0" y="215" class="t" font-size="9">Rust</text><rect x="105" y="205" width="11" height="6" fill="#9a6df5"/><text x="270" y="215" class="d" font-size="8">1</text><text x="0" y="240" class="t" font-size="9">TypeScript</text><rect x="105" y="230" width="11" height="6" fill="#5fa7ff"/><text x="270" y="240" class="d" font-size="8">1</text><text x="0" y="265" class="t" font-size="9">JavaScript</text><rect x="105" y="255" width="11" height="6" fill="#f2f4f7"/><text x="270" y="265" class="d" font-size="8">1</text><text x="0" y="290" class="t" font-size="9">CSS</text><rect x="105" y="280" width="11" height="6" fill="#5fa7ff"/><text x="270" y="290" class="d" font-size="8">1</text><text x="0" y="315" class="t" font-size="9">HTML</text><rect x="105" y="305" width="11" height="6" fill="#6b7480"/><text x="270" y="315" class="d" font-size="8">1</text><text x="360" y="110" class="h" font-size="9" letter-spacing="2">REPOSITORY VELOCITY · RECENT UPDATES</text><polyline points="360,210 410,195 460,185 510,165 560,145 610,120" fill="none" stroke="#e8edf2" stroke-width="2"/><circle cx="360" cy="210" r="2.5" fill="#e8edf2"/><circle cx="410" cy="195" r="2.5" fill="#e8edf2"/><circle cx="460" cy="185" r="2.5" fill="#e8edf2"/><circle cx="510" cy="165" r="2.5" fill="#e8edf2"/><circle cx="560" cy="145" r="2.5" fill="#e8edf2"/><circle cx="610" cy="120" r="2.5" fill="#e8edf2"/><text x="360" y="232" class="d" font-size="8">May</text><text x="505" y="232" class="d" font-size="8">Jul</text><text x="600" y="232" class="d" font-size="8">Aug</text><text x="700" y="125" class="t" font-size="24">39</text><text x="752" y="123" class="h" font-size="8" letter-spacing="1">REPOSITORIES</text><text x="700" y="168" class="t" font-size="24">5</text><text x="752" y="166" class="h" font-size="8" letter-spacing="1">STARS</text><text x="700" y="211" class="t" font-size="24">5</text><text x="752" y="209" class="h" font-size="8" letter-spacing="1">FOLLOWERS</text><text x="700" y="254" class="t" font-size="24">9</text><text x="752" y="252" class="h" font-size="8" letter-spacing="1">FOLLOWING</text><rect x="0" y="285" width="425" height="120" fill="#0f141b" stroke="#657080"/>
<text x="18" y="310" class="h" font-size="10" letter-spacing="2">GITHUB PROFILE STATS</text>
<line x1="18" y1="320" x2="405" y2="320" class="l"/>
<text x="18" y="345" class="t" font-size="9">PUBLIC REPOSITORIES</text><text x="400" y="345" class="h" font-size="9" text-anchor="end">39</text>
<text x="18" y="365" class="t" font-size="9">TOTAL STARS</text><text x="400" y="365" class="h" font-size="9" text-anchor="end">5</text>
<text x="18" y="385" class="t" font-size="9">FOLLOWERS</text><text x="400" y="385" class="h" font-size="9" text-anchor="end">5</text>
<text x="18" y="405" class="t" font-size="9">FOLLOWING</text><text x="400" y="405" class="h" font-size="9" text-anchor="end">9</text>
<rect x="455" y="285" width="445" height="120" fill="#0f141b" stroke="#657080"/>
<text x="473" y="310" class="h" font-size="10" letter-spacing="2">LANGUAGES BY REPOSITORY</text>
<line x1="473" y1="320" x2="880" y2="320" class="l"/><text x="473" y="345" class="t" font-size="8">Jupyter Notebook</text><rect x="570" y="336" width="205" height="7" fill="#151b23" stroke="#3e4752"/><rect x="570" y="336" width="205" height="7" fill="#f2f4f7"/><text x="473" y="360" class="t" font-size="8">Python</text><rect x="570" y="351" width="205" height="7" fill="#151b23" stroke="#3e4752"/><rect x="570" y="351" width="205" height="7" fill="#5fa7ff"/><text x="473" y="375" class="t" font-size="8">Dart</text><rect x="570" y="366" width="205" height="7" fill="#151b23" stroke="#3e4752"/><rect x="570" y="366" width="15" height="7" fill="#16c1b7"/><text x="473" y="390" class="t" font-size="8">Rust</text><rect x="570" y="381" width="205" height="7" fill="#151b23" stroke="#3e4752"/><rect x="570" y="381" width="15" height="7" fill="#9a6df5"/><text x="473" y="405" class="t" font-size="8">TypeScript</text><rect x="570" y="396" width="205" height="7" fill="#151b23" stroke="#3e4752"/><rect x="570" y="396" width="15" height="7" fill="#5fa7ff"/><text x="473" y="420" class="t" font-size="8">JavaScript</text><rect x="570" y="411" width="205" height="7" fill="#151b23" stroke="#3e4752"/><rect x="570" y="411" width="15" height="7" fill="#f2f4f7"/><text x="0" y="445" class="h" font-size="10" text-anchor="middle" transform="translate(450 0)">CONTRIBUTION TELEMETRY</text><rect x="0" y="470" width="11" height="9" fill="#151b23"/><rect x="17" y="470" width="11" height="9" fill="#315f44"/><rect x="34" y="470" width="11" height="9" fill="#151b23"/><rect x="51" y="470" width="11" height="9" fill="#58a96a"/><rect x="68" y="470" width="11" height="9" fill="#151b23"/><rect x="85" y="470" width="11" height="9" fill="#151b23"/><rect x="102" y="470" width="11" height="9" fill="#58a96a"/><rect x="119" y="470" width="11" height="9" fill="#151b23"/><rect x="136" y="470" width="11" height="9" fill="#151b23"/><rect x="153" y="470" width="11" height="9" fill="#315f44"/><rect x="170" y="470" width="11" height="9" fill="#151b23"/><rect x="187" y="470" width="11" height="9" fill="#151b23"/><rect x="204" y="470" width="11" height="9" fill="#315f44"/><rect x="221" y="470" width="11" height="9" fill="#151b23"/><rect x="238" y="470" width="11" height="9" fill="#58a96a"/><rect x="255" y="470" width="11" height="9" fill="#151b23"/><rect x="272" y="470" width="11" height="9" fill="#151b23"/><rect x="289" y="470" width="11" height="9" fill="#58a96a"/><rect x="306" y="470" width="11" height="9" fill="#151b23"/><rect x="323" y="470" width="11" height="9" fill="#151b23"/><rect x="340" y="470" width="11" height="9" fill="#315f44"/><rect x="357" y="470" width="11" height="9" fill="#151b23"/><rect x="374" y="470" width="11" height="9" fill="#151b23"/><rect x="391" y="470" width="11" height="9" fill="#315f44"/><rect x="408" y="470" width="11" height="9" fill="#151b23"/><rect x="425" y="470" width="11" height="9" fill="#58a96a"/><rect x="442" y="470" width="11" height="9" fill="#151b23"/><rect x="459" y="470" width="11" height="9" fill="#151b23"/><rect x="476" y="470" width="11" height="9" fill="#58a96a"/><rect x="493" y="470" width="11" height="9" fill="#151b23"/><rect x="510" y="470" width="11" height="9" fill="#151b23"/><rect x="527" y="470" width="11" height="9" fill="#315f44"/><rect x="544" y="470" width="11" height="9" fill="#151b23"/><rect x="561" y="470" width="11" height="9" fill="#151b23"/><rect x="578" y="470" width="11" height="9" fill="#315f44"/><rect x="595" y="470" width="11" height="9" fill="#151b23"/><rect x="612" y="470" width="11" height="9" fill="#58a96a"/><rect x="629" y="470" width="11" height="9" fill="#151b23"/><rect x="646" y="470" width="11" height="9" fill="#151b23"/><rect x="663" y="470" width="11" height="9" fill="#58a96a"/><rect x="680" y="470" width="11" height="9" fill="#151b23"/><rect x="697" y="470" width="11" height="9" fill="#151b23"/><rect x="714" y="470" width="11" height="9" fill="#315f44"/><rect x="731" y="470" width="11" height="9" fill="#151b23"/><rect x="748" y="470" width="11" height="9" fill="#151b23"/><rect x="765" y="470" width="11" height="9" fill="#315f44"/><rect x="782" y="470" width="11" height="9" fill="#151b23"/><rect x="799" y="470" width="11" height="9" fill="#58a96a"/><rect x="816" y="470" width="11" height="9" fill="#151b23"/><rect x="833" y="470" width="11" height="9" fill="#151b23"/><rect x="850" y="470" width="11" height="9" fill="#58a96a"/><rect x="867" y="470" width="11" height="9" fill="#151b23"/><rect x="0" y="484" width="11" height="9" fill="#151b23"/><rect x="17" y="484" width="11" height="9" fill="#58a96a"/><rect x="34" y="484" width="11" height="9" fill="#151b23"/><rect x="51" y="484" width="11" height="9" fill="#151b23"/><rect x="68" y="484" width="11" height="9" fill="#58a96a"/><rect x="85" y="484" width="11" height="9" fill="#151b23"/><rect x="102" y="484" width="11" height="9" fill="#151b23"/><rect x="119" y="484" width="11" height="9" fill="#315f44"/><rect x="136" y="484" width="11" height="9" fill="#151b23"/><rect x="153" y="484" width="11" height="9" fill="#151b23"/><rect x="170" y="484" width="11" height="9" fill="#315f44"/><rect x="187" y="484" width="11" height="9" fill="#151b23"/><rect x="204" y="484" width="11" height="9" fill="#58a96a"/><rect x="221" y="484" width="11" height="9" fill="#151b23"/><rect x="238" y="484" width="11" height="9" fill="#151b23"/><rect x="255" y="484" width="11" height="9" fill="#58a96a"/><rect x="272" y="484" width="11" height="9" fill="#151b23"/><rect x="289" y="484" width="11" height="9" fill="#151b23"/><rect x="306" y="484" width="11" height="9" fill="#315f44"/><rect x="323" y="484" width="11" height="9" fill="#151b23"/><rect x="340" y="484" width="11" height="9" fill="#151b23"/><rect x="357" y="484" width="11" height="9" fill="#315f44"/><rect x="374" y="484" width="11" height="9" fill="#151b23"/><rect x="391" y="484" width="11" height="9" fill="#58a96a"/><rect x="408" y="484" width="11" height="9" fill="#151b23"/><rect x="425" y="484" width="11" height="9" fill="#151b23"/><rect x="442" y="484" width="11" height="9" fill="#58a96a"/><rect x="459" y="484" width="11" height="9" fill="#151b23"/><rect x="476" y="484" width="11" height="9" fill="#151b23"/><rect x="493" y="484" width="11" height="9" fill="#315f44"/><rect x="510" y="484" width="11" height="9" fill="#151b23"/><rect x="527" y="484" width="11" height="9" fill="#151b23"/><rect x="544" y="484" width="11" height="9" fill="#315f44"/><rect x="561" y="484" width="11" height="9" fill="#151b23"/><rect x="578" y="484" width="11" height="9" fill="#58a96a"/><rect x="595" y="484" width="11" height="9" fill="#151b23"/><rect x="612" y="484" width="11" height="9" fill="#151b23"/><rect x="629" y="484" width="11" height="9" fill="#58a96a"/><rect x="646" y="484" width="11" height="9" fill="#151b23"/><rect x="663" y="484" width="11" height="9" fill="#151b23"/><rect x="680" y="484" width="11" height="9" fill="#315f44"/><rect x="697" y="484" width="11" height="9" fill="#151b23"/><rect x="714" y="484" width="11" height="9" fill="#151b23"/><rect x="731" y="484" width="11" height="9" fill="#315f44"/><rect x="748" y="484" width="11" height="9" fill="#151b23"/><rect x="765" y="484" width="11" height="9" fill="#58a96a"/><rect x="782" y="484" width="11" height="9" fill="#151b23"/><rect x="799" y="484" width="11" height="9" fill="#151b23"/><rect x="816" y="484" width="11" height="9" fill="#58a96a"/><rect x="833" y="484" width="11" height="9" fill="#151b23"/><rect x="850" y="484" width="11" height="9" fill="#151b23"/><rect x="867" y="484" width="11" height="9" fill="#315f44"/><rect x="0" y="498" width="11" height="9" fill="#151b23"/><rect x="17" y="498" width="11" height="9" fill="#151b23"/><rect x="34" y="498" width="11" height="9" fill="#58a96a"/><rect x="51" y="498" width="11" height="9" fill="#151b23"/><rect x="68" y="498" width="11" height="9" fill="#151b23"/><rect x="85" y="498" width="11" height="9" fill="#315f44"/><rect x="102" y="498" width="11" height="9" fill="#151b23"/><rect x="119" y="498" width="11" height="9" fill="#151b23"/><rect x="136" y="498" width="11" height="9" fill="#315f44"/><rect x="153" y="498" width="11" height="9" fill="#151b23"/><rect x="170" y="498" width="11" height="9" fill="#58a96a"/><rect x="187" y="498" width="11" height="9" fill="#151b23"/><rect x="204" y="498" width="11" height="9" fill="#151b23"/><rect x="221" y="498" width="11" height="9" fill="#58a96a"/><rect x="238" y="498" width="11" height="9" fill="#151b23"/><rect x="255" y="498" width="11" height="9" fill="#151b23"/><rect x="272" y="498" width="11" height="9" fill="#315f44"/><rect x="289" y="498" width="11" height="9" fill="#151b23"/><rect x="306" y="498" width="11" height="9" fill="#151b23"/><rect x="323" y="498" width="11" height="9" fill="#315f44"/><rect x="340" y="498" width="11" height="9" fill="#151b23"/><rect x="357" y="498" width="11" height="9" fill="#58a96a"/><rect x="374" y="498" width="11" height="9" fill="#151b23"/><rect x="391" y="498" width="11" height="9" fill="#151b23"/><rect x="408" y="498" width="11" height="9" fill="#58a96a"/><rect x="425" y="498" width="11" height="9" fill="#151b23"/><rect x="442" y="498" width="11" height="9" fill="#151b23"/><rect x="459" y="498" width="11" height="9" fill="#315f44"/><rect x="476" y="498" width="11" height="9" fill="#151b23"/><rect x="493" y="498" width="11" height="9" fill="#151b23"/><rect x="510" y="498" width="11" height="9" fill="#315f44"/><rect x="527" y="498" width="11" height="9" fill="#151b23"/><rect x="544" y="498" width="11" height="9" fill="#58a96a"/><rect x="561" y="498" width="11" height="9" fill="#151b23"/><rect x="578" y="498" width="11" height="9" fill="#151b23"/><rect x="595" y="498" width="11" height="9" fill="#58a96a"/><rect x="612" y="498" width="11" height="9" fill="#151b23"/><rect x="629" y="498" width="11" height="9" fill="#151b23"/><rect x="646" y="498" width="11" height="9" fill="#315f44"/><rect x="663" y="498" width="11" height="9" fill="#151b23"/><rect x="680" y="498" width="11" height="9" fill="#151b23"/><rect x="697" y="498" width="11" height="9" fill="#315f44"/><rect x="714" y="498" width="11" height="9" fill="#151b23"/><rect x="731" y="498" width="11" height="9" fill="#58a96a"/><rect x="748" y="498" width="11" height="9" fill="#151b23"/><rect x="765" y="498" width="11" height="9" fill="#151b23"/><rect x="782" y="498" width="11" height="9" fill="#58a96a"/><rect x="799" y="498" width="11" height="9" fill="#151b23"/><rect x="816" y="498" width="11" height="9" fill="#151b23"/><rect x="833" y="498" width="11" height="9" fill="#315f44"/><rect x="850" y="498" width="11" height="9" fill="#151b23"/><rect x="867" y="498" width="11" height="9" fill="#151b23"/><rect x="0" y="512" width="11" height="9" fill="#58a96a"/><rect x="17" y="512" width="11" height="9" fill="#151b23"/><rect x="34" y="512" width="11" height="9" fill="#151b23"/><rect x="51" y="512" width="11" height="9" fill="#315f44"/><rect x="68" y="512" width="11" height="9" fill="#151b23"/><rect x="85" y="512" width="11" height="9" fill="#151b23"/><rect x="102" y="512" width="11" height="9" fill="#315f44"/><rect x="119" y="512" width="11" height="9" fill="#151b23"/><rect x="136" y="512" width="11" height="9" fill="#58a96a"/><rect x="153" y="512" width="11" height="9" fill="#151b23"/><rect x="170" y="512" width="11" height="9" fill="#151b23"/><rect x="187" y="512" width="11" height="9" fill="#58a96a"/><rect x="204" y="512" width="11" height="9" fill="#151b23"/><rect x="221" y="512" width="11" height="9" fill="#151b23"/><rect x="238" y="512" width="11" height="9" fill="#315f44"/><rect x="255" y="512" width="11" height="9" fill="#151b23"/><rect x="272" y="512" width="11" height="9" fill="#151b23"/><rect x="289" y="512" width="11" height="9" fill="#315f44"/><rect x="306" y="512" width="11" height="9" fill="#151b23"/><rect x="323" y="512" width="11" height="9" fill="#58a96a"/><rect x="340" y="512" width="11" height="9" fill="#151b23"/><rect x="357" y="512" width="11" height="9" fill="#151b23"/><rect x="374" y="512" width="11" height="9" fill="#58a96a"/><rect x="391" y="512" width="11" height="9" fill="#151b23"/><rect x="408" y="512" width="11" height="9" fill="#151b23"/><rect x="425" y="512" width="11" height="9" fill="#315f44"/><rect x="442" y="512" width="11" height="9" fill="#151b23"/><rect x="459" y="512" width="11" height="9" fill="#151b23"/><rect x="476" y="512" width="11" height="9" fill="#315f44"/><rect x="493" y="512" width="11" height="9" fill="#151b23"/><rect x="510" y="512" width="11" height="9" fill="#58a96a"/><rect x="527" y="512" width="11" height="9" fill="#151b23"/><rect x="544" y="512" width="11" height="9" fill="#151b23"/><rect x="561" y="512" width="11" height="9" fill="#58a96a"/><rect x="578" y="512" width="11" height="9" fill="#151b23"/><rect x="595" y="512" width="11" height="9" fill="#151b23"/><rect x="612" y="512" width="11" height="9" fill="#315f44"/><rect x="629" y="512" width="11" height="9" fill="#151b23"/><rect x="646" y="512" width="11" height="9" fill="#151b23"/><rect x="663" y="512" width="11" height="9" fill="#315f44"/><rect x="680" y="512" width="11" height="9" fill="#151b23"/><rect x="697" y="512" width="11" height="9" fill="#58a96a"/><rect x="714" y="512" width="11" height="9" fill="#151b23"/><rect x="731" y="512" width="11" height="9" fill="#151b23"/><rect x="748" y="512" width="11" height="9" fill="#58a96a"/><rect x="765" y="512" width="11" height="9" fill="#151b23"/><rect x="782" y="512" width="11" height="9" fill="#151b23"/><rect x="799" y="512" width="11" height="9" fill="#315f44"/><rect x="816" y="512" width="11" height="9" fill="#151b23"/><rect x="833" y="512" width="11" height="9" fill="#151b23"/><rect x="850" y="512" width="11" height="9" fill="#315f44"/><rect x="867" y="512" width="11" height="9" fill="#151b23"/><rect x="0" y="526" width="11" height="9" fill="#151b23"/><rect x="17" y="526" width="11" height="9" fill="#315f44"/><rect x="34" y="526" width="11" height="9" fill="#151b23"/><rect x="51" y="526" width="11" height="9" fill="#151b23"/><rect x="68" y="526" width="11" height="9" fill="#315f44"/><rect x="85" y="526" width="11" height="9" fill="#151b23"/><rect x="102" y="526" width="11" height="9" fill="#58a96a"/><rect x="119" y="526" width="11" height="9" fill="#151b23"/><rect x="136" y="526" width="11" height="9" fill="#151b23"/><rect x="153" y="526" width="11" height="9" fill="#58a96a"/><rect x="170" y="526" width="11" height="9" fill="#151b23"/><rect x="187" y="526" width="11" height="9" fill="#151b23"/><rect x="204" y="526" width="11" height="9" fill="#315f44"/><rect x="221" y="526" width="11" height="9" fill="#151b23"/><rect x="238" y="526" width="11" height="9" fill="#151b23"/><rect x="255" y="526" width="11" height="9" fill="#315f44"/><rect x="272" y="526" width="11" height="9" fill="#151b23"/><rect x="289" y="526" width="11" height="9" fill="#58a96a"/><rect x="306" y="526" width="11" height="9" fill="#151b23"/><rect x="323" y="526" width="11" height="9" fill="#151b23"/><rect x="340" y="526" width="11" height="9" fill="#58a96a"/><rect x="357" y="526" width="11" height="9" fill="#151b23"/><rect x="374" y="526" width="11" height="9" fill="#151b23"/><rect x="391" y="526" width="11" height="9" fill="#315f44"/><rect x="408" y="526" width="11" height="9" fill="#151b23"/><rect x="425" y="526" width="11" height="9" fill="#151b23"/><rect x="442" y="526" width="11" height="9" fill="#315f44"/><rect x="459" y="526" width="11" height="9" fill="#151b23"/><rect x="476" y="526" width="11" height="9" fill="#58a96a"/><rect x="493" y="526" width="11" height="9" fill="#151b23"/><rect x="510" y="526" width="11" height="9" fill="#151b23"/><rect x="527" y="526" width="11" height="9" fill="#58a96a"/><rect x="544" y="526" width="11" height="9" fill="#151b23"/><rect x="561" y="526" width="11" height="9" fill="#151b23"/><rect x="578" y="526" width="11" height="9" fill="#315f44"/><rect x="595" y="526" width="11" height="9" fill="#151b23"/><rect x="612" y="526" width="11" height="9" fill="#151b23"/><rect x="629" y="526" width="11" height="9" fill="#315f44"/><rect x="646" y="526" width="11" height="9" fill="#151b23"/><rect x="663" y="526" width="11" height="9" fill="#58a96a"/><rect x="680" y="526" width="11" height="9" fill="#151b23"/><rect x="697" y="526" width="11" height="9" fill="#151b23"/><rect x="714" y="526" width="11" height="9" fill="#58a96a"/><rect x="731" y="526" width="11" height="9" fill="#151b23"/><rect x="748" y="526" width="11" height="9" fill="#151b23"/><rect x="765" y="526" width="11" height="9" fill="#315f44"/><rect x="782" y="526" width="11" height="9" fill="#151b23"/><rect x="799" y="526" width="11" height="9" fill="#151b23"/><rect x="816" y="526" width="11" height="9" fill="#315f44"/><rect x="833" y="526" width="11" height="9" fill="#151b23"/><rect x="850" y="526" width="11" height="9" fill="#58a96a"/><rect x="867" y="526" width="11" height="9" fill="#151b23"/><text x="0" y="565" class="d" font-size="8">account snapshot · live profile totals verified from GitHub · contribution grid is visual only</text></svg>